<?xml version="1.0" encoding="UTF-8" standalone="no"?>
<!-- Created with Inkscape (http://www.inkscape.org/) -->
<svg
   xmlns:svg="http://www.w3.org/2000/svg"
   xmlns="http://www.w3.org/2000/svg"
   version="1.0"
   width="110"
   height="24"
   id="svg2523">
  <defs
     id="defs2525" />
  <g
     transform="translate(-182.75536,-593.77576)"
     id="layer1">
    <g
       transform="matrix(1.0286607,0,0,1.0286607,184.72426,595.41676)"
       id="g2534">
	<rect
   width="0.47"
   height="7.026"
   x="39.383999"
   y="8.5089998"
   id="rect2536"
   style="fill:#33619d" />

	<path
   d="M 41.799,11.724 C 42.353,11.724 42.682,12.432 42.682,13.308 C 42.682,14.194 42.381,14.967 41.805,14.967 C 41.246,14.967 40.944,14.156 40.944,13.299 C 40.944,12.478 41.279,11.724 41.799,11.724 M 42.661,15.535 L 43.108,15.535 L 43.108,7.846 L 42.661,7.846 L 42.661,11.779 L 42.65,11.779 C 42.438,11.313 42.101,11.033 41.75,11.033 C 40.961,11.033 40.486,12.105 40.486,13.354 C 40.486,14.565 40.973,15.656 41.744,15.656 C 42.101,15.656 42.432,15.404 42.65,14.929 L 42.661,14.929 L 42.661,15.535 z"
   id="path2538"
   style="fill:#33619d" />

	<path
   d="M 45.026,11.724 C 45.58,11.724 45.909,12.432 45.909,13.307 C 45.909,14.194 45.608,14.967 45.031,14.967 C 44.472,14.967 44.17,14.155 44.17,13.299 C 44.17,12.478 44.506,11.724 45.026,11.724 M 46.335,11.155 L 45.887,11.155 L 45.887,11.78 L 45.876,11.78 C 45.658,11.314 45.334,11.034 44.976,11.034 C 44.187,11.034 43.712,12.106 43.712,13.355 C 43.712,14.566 44.199,15.657 44.97,15.657 C 45.339,15.657 45.647,15.414 45.876,14.93 L 45.887,14.93 L 45.887,15.535 L 46.335,15.535 L 46.335,11.155 z"
   id="path2540"
   style="fill:#33619d" />

	<path
   d="M 47.609,7.846 L 47.609,11.667 L 47.62,11.686 C 47.805,11.267 48.045,11.033 48.37,11.033 C 49.097,11.033 49.265,11.909 49.265,12.934 L 49.265,15.534 L 48.817,15.534 L 48.817,13.064 C 48.817,12.357 48.784,11.723 48.263,11.723 C 47.649,11.723 47.609,12.674 47.609,13.457 L 47.609,15.534 L 47.162,15.534 L 47.162,7.846 L 47.609,7.846 z"
   id="path2542"
   style="fill:#33619d" />

	<path
   d="M 51.261,11.723 C 51.814,11.723 52.195,12.459 52.195,13.346 C 52.195,14.239 51.814,14.966 51.261,14.966 C 50.707,14.966 50.327,14.239 50.327,13.346 C 50.327,12.459 50.707,11.723 51.261,11.723 M 51.261,15.656 C 52.026,15.656 52.642,14.64 52.642,13.354 C 52.642,12.068 52.033,11.033 51.261,11.033 C 50.489,11.033 49.879,12.068 49.879,13.354 C 49.879,14.64 50.495,15.656 51.261,15.656"
   id="path2544"
   style="fill:#33619d" />

	<polygon
   points="55.007,8.21 58.295,13.951 58.295,8.509 58.765,8.509 58.765,15.852 55.477,10.121 55.477,15.535 55.007,15.535 55.007,8.21 "
   id="polygon2546"
   style="fill:#33619d" />

	<path
   d="M 60.621,11.724 C 61.175,11.724 61.505,12.432 61.505,13.307 C 61.505,14.194 61.203,14.967 60.627,14.967 C 60.068,14.967 59.766,14.155 59.766,13.299 C 59.766,12.478 60.102,11.724 60.621,11.724 M 61.93,11.155 L 61.483,11.155 L 61.483,11.78 L 61.472,11.78 C 61.253,11.314 60.929,11.034 60.571,11.034 C 59.783,11.034 59.307,12.106 59.307,13.355 C 59.307,14.566 59.794,15.657 60.565,15.657 C 60.935,15.657 61.242,15.414 61.472,14.93 L 61.483,14.93 L 61.483,15.535 L 61.93,15.535 L 61.93,11.155 z"
   id="path2548"
   style="fill:#33619d" />

	<polygon
   points="63.227,15.535 62.779,15.535 62.779,11.843 62.505,11.843 62.505,11.154 62.779,11.154 62.779,9.581 63.227,9.581 63.227,11.154 63.696,11.154 63.696,11.843 63.227,11.843 63.227,15.535 "
   id="polygon2550"
   style="fill:#33619d" />

	<path
   d="M 64.629,15.534 L 64.182,15.534 L 64.182,11.154 L 64.629,11.154 L 64.629,15.534 z M 64.725,9.505 C 64.725,9.803 64.58,10.037 64.406,10.037 C 64.233,10.037 64.087,9.803 64.087,9.505 C 64.087,9.216 64.233,8.973 64.406,8.973 C 64.58,8.973 64.725,9.216 64.725,9.505"
   id="path2552"
   style="fill:#33619d" />

	<path
   d="M 66.599,11.723 C 67.152,11.723 67.532,12.459 67.532,13.346 C 67.532,14.239 67.152,14.966 66.599,14.966 C 66.044,14.966 65.665,14.239 65.665,13.346 C 65.665,12.459 66.044,11.723 66.599,11.723 M 66.599,15.656 C 67.364,15.656 67.98,14.64 67.98,13.354 C 67.98,12.068 67.37,11.033 66.599,11.033 C 65.826,11.033 65.217,12.068 65.217,13.354 C 65.217,14.64 65.832,15.656 66.599,15.656"
   id="path2554"
   style="fill:#33619d" />

	<path
   d="M 68.93,11.686 L 68.942,11.686 C 69.127,11.267 69.367,11.033 69.691,11.033 C 70.418,11.033 70.587,11.91 70.587,12.935 L 70.587,15.534 L 70.14,15.534 L 70.14,13.064 C 70.14,12.357 70.105,11.723 69.585,11.723 C 68.972,11.723 68.931,12.674 68.931,13.457 L 68.931,15.534 L 68.484,15.534 L 68.484,11.154 L 68.931,11.154 L 68.931,11.686 L 68.93,11.686 z"
   id="path2556"
   style="fill:#33619d" />

	<path
   d="M 72.412,11.724 C 72.967,11.724 73.297,12.432 73.297,13.307 C 73.297,14.194 72.994,14.967 72.42,14.967 C 71.859,14.967 71.559,14.155 71.559,13.299 C 71.559,12.478 71.895,11.724 72.412,11.724 M 73.722,11.155 L 73.276,11.155 L 73.276,11.78 L 73.264,11.78 C 73.045,11.314 72.721,11.034 72.364,11.034 C 71.575,11.034 71.1,12.106 71.1,13.355 C 71.1,14.566 71.586,15.657 72.358,15.657 C 72.727,15.657 73.034,15.414 73.264,14.93 L 73.276,14.93 L 73.276,15.535 L 73.722,15.535 L 73.722,11.155 z"
   id="path2558"
   style="fill:#33619d" />

	<rect
   width="0.44800001"
   height="7.6880002"
   x="74.538002"
   y="7.8470001"
   id="rect2560"
   style="fill:#33619d" />

	<polygon
   points="78.011,14.808 79.174,14.808 79.174,15.535 77.541,15.535 77.541,8.509 78.011,8.509 78.011,14.808 "
   id="polygon2562"
   style="fill:#33619d" />

	<path
   d="M 80.729,11.724 C 81.282,11.724 81.612,12.432 81.612,13.307 C 81.612,14.194 81.31,14.967 80.735,14.967 C 80.175,14.967 79.874,14.155 79.874,13.299 C 79.873,12.478 80.209,11.724 80.729,11.724 M 82.037,11.155 L 81.59,11.155 L 81.59,11.78 L 81.578,11.78 C 81.359,11.314 81.037,11.034 80.679,11.034 C 79.89,11.034 79.415,12.106 79.415,13.355 C 79.415,14.566 79.9,15.657 80.673,15.657 C 81.041,15.657 81.349,15.414 81.578,14.93 L 81.59,14.93 L 81.59,15.535 L 82.037,15.535 L 82.037,11.155 z"
   id="path2564"
   style="fill:#33619d" />

	<path
   d="M 84.122,11.724 C 84.676,11.724 85.006,12.432 85.006,13.308 C 85.006,14.194 84.703,14.967 84.129,14.967 C 83.569,14.967 83.268,14.156 83.268,13.299 C 83.268,12.478 83.603,11.724 84.122,11.724 M 82.842,15.535 L 83.289,15.535 L 83.289,14.93 L 83.301,14.93 C 83.514,15.405 83.844,15.657 84.207,15.657 C 84.978,15.657 85.465,14.566 85.465,13.346 C 85.465,12.106 84.984,11.034 84.2,11.034 C 83.844,11.034 83.513,11.314 83.301,11.78 L 83.289,11.78 L 83.289,7.846 L 82.842,7.846 L 82.842,15.535 z"
   id="path2566"
   style="fill:#33619d" />

	<path
   d="M 87.237,11.723 C 87.791,11.723 88.172,12.459 88.172,13.346 C 88.172,14.239 87.791,14.966 87.237,14.966 C 86.683,14.966 86.303,14.239 86.303,13.346 C 86.304,12.459 86.684,11.723 87.237,11.723 M 87.237,15.656 C 88.004,15.656 88.619,14.64 88.619,13.354 C 88.619,12.068 88.008,11.033 87.237,11.033 C 86.465,11.033 85.855,12.068 85.855,13.354 C 85.855,14.64 86.472,15.656 87.237,15.656"
   id="path2568"
   style="fill:#33619d" />

	<path
   d="M 89.546,11.63 L 89.557,11.63 C 89.714,11.285 89.85,11.034 90.139,11.034 C 90.29,11.034 90.413,11.118 90.542,11.238 L 90.329,11.919 C 90.24,11.817 90.178,11.724 90.06,11.724 C 89.568,11.724 89.545,12.776 89.545,13.345 L 89.545,15.534 L 89.1,15.534 L 89.1,11.154 L 89.546,11.154 L 89.546,11.63 L 89.546,11.63 z"
   id="path2570"
   style="fill:#33619d" />

	<path
   d="M 91.974,11.724 C 92.527,11.724 92.857,12.432 92.857,13.307 C 92.857,14.194 92.555,14.967 91.979,14.967 C 91.42,14.967 91.118,14.155 91.118,13.299 C 91.117,12.478 91.453,11.724 91.974,11.724 M 93.281,11.155 L 92.834,11.155 L 92.834,11.78 L 92.824,11.78 C 92.604,11.314 92.281,11.034 91.923,11.034 C 91.135,11.034 90.66,12.106 90.66,13.355 C 90.66,14.566 91.145,15.657 91.916,15.657 C 92.287,15.657 92.595,15.414 92.824,14.93 L 92.834,14.93 L 92.834,15.535 L 93.281,15.535 L 93.281,11.155 z"
   id="path2572"
   style="fill:#33619d" />

	<polygon
   points="94.578,15.535 94.132,15.535 94.132,11.843 93.858,11.843 93.858,11.154 94.132,11.154 94.132,9.581 94.578,9.581 94.578,11.154 95.049,11.154 95.049,11.843 94.578,11.843 94.578,15.535 "
   id="polygon2574"
   style="fill:#33619d" />

	<path
   d="M 96.598,11.723 C 97.151,11.723 97.533,12.459 97.533,13.346 C 97.533,14.239 97.151,14.966 96.598,14.966 C 96.044,14.966 95.664,14.239 95.664,13.346 C 95.664,12.459 96.044,11.723 96.598,11.723 M 96.598,15.656 C 97.365,15.656 97.979,14.64 97.979,13.354 C 97.979,12.068 97.37,11.033 96.598,11.033 C 95.826,11.033 95.216,12.068 95.216,13.354 C 95.216,14.64 95.832,15.656 96.598,15.656"
   id="path2576"
   style="fill:#33619d" />

	<path
   d="M 99.02,11.63 L 99.031,11.63 C 99.186,11.285 99.322,11.034 99.612,11.034 C 99.762,11.034 99.885,11.118 100.014,11.238 L 99.803,11.919 C 99.712,11.817 99.651,11.724 99.533,11.724 C 99.041,11.724 99.019,12.776 99.019,13.345 L 99.019,15.534 L 98.571,15.534 L 98.571,11.154 L 99.019,11.154 L 99.019,11.63 L 99.02,11.63 z"
   id="path2578"
   style="fill:#33619d" />

	<polygon
   points="100.253,11.155 100.773,11.155 101.702,14.295 102.553,11.155 103.061,11.155 101.12,17.996 100.611,17.996 101.461,15.125 100.253,11.155 "
   id="polygon2580"
   style="fill:#33619d" />

	<path
   d="M 36.919,18.381 C 36.234,19.033 35.085,19.413 33.593,19.548 C 35.172,19.462 36.335,19.088 36.919,18.381"
   id="path2582"
   style="fill:#33619d" />

	<path
   d="M 10.085,0 C 9.403,0 8.807,0.361 8.473,0.901 C 7.125,0.732 5.887,0.669 4.797,0.726 L 4.798,0.727 C 4.754,0.728 4.712,0.731 4.668,0.733 C 3.973,0.775 3.339,0.868 2.777,1.012 C 1.275,1.459 0.854,2.377 1.145,3.514 C 1.158,3.438 1.175,3.363 1.196,3.289 C 1.786,2.024 4.469,1.691 8.212,2.187 C 8.352,3.097 9.136,3.796 10.086,3.796 C 11.134,3.796 11.984,2.946 11.984,1.898 C 11.984,0.85 11.133,0 10.085,0"
   id="path2584"
   style="fill:#33619d" />

	<path
   d="M 12.156,4.418 L 8.023,4.418 L 8.023,10.474 C 9.354,11.341 10.769,12.164 12.156,12.899 L 12.156,4.418 L 12.156,4.418 z"
   id="path2586"
   style="fill:#33619d" />

	<path
   d="M 29.885,9.432 L 29.885,4.418 L 25.752,4.418 L 25.752,7.136 C 25.292,6.906 24.823,6.68 24.346,6.458 L 24.346,4.418 L 20.376,4.418 L 20.376,4.767 C 18.805,4.146 17.337,3.641 16.033,3.235 L 15.999,3.376 C 17.294,3.782 18.767,4.292 20.376,4.927 L 20.376,11.549 L 17.816,4.418 L 13.569,4.418 L 13.569,13.62 C 14.765,14.208 15.91,14.716 16.93,15.108 C 17.134,15.192 17.337,15.273 17.539,15.355 L 17.539,13.393 L 18.334,15.667 C 20.393,16.462 22.423,17.142 24.346,17.683 L 24.346,6.636 C 24.823,6.861 25.292,7.089 25.752,7.321 L 25.752,18.058 C 28.528,18.76 31.025,19.144 32.985,19.14 L 32.985,16.087 L 29.885,16.087 L 29.885,9.634 C 34.892,12.753 38.021,16.042 37.16,18.003 C 35.761,20.955 26.458,19.484 16.911,15.656 C 14.413,14.715 11.16,13.101 8.254,11.269 L 8.255,11.275 C 2.481,7.728 -0.444,4.059 0.587,2.226 C 0.42,2.421 0.281,2.636 0.177,2.871 C -0.747,4.947 1.965,8.329 8.023,11.957 L 8.023,19.694 L 12.156,19.694 L 12.156,14.204 C 12.615,14.431 13.085,14.66 13.569,14.887 L 13.569,19.694 L 17.539,19.694 L 17.539,16.619 C 17.974,16.789 18.407,16.953 18.839,17.112 L 19.741,19.694 L 24.346,19.694 L 24.346,18.84 C 24.822,18.962 25.291,19.076 25.752,19.18 L 25.752,19.694 L 28.411,19.694 C 33.07,20.423 36.559,19.996 37.432,18.115 C 38.364,16.17 35.169,12.704 29.885,9.432"
   id="path2588"
   style="fill:#33619d" />

</g>
  </g>
</svg>
